<svg width="720" height="540" viewBox="0 0 720 540" fill="none" xmlns="http://www.w3.org/2000/svg">
  <rect width="720" height="540" rx="48" fill="#F8FAF9" />
  <g opacity="0.4" filter="url(#shadow)">
    <rect x="100" y="120" width="520" height="320" rx="28" fill="white" />
  </g>
  <rect x="118" y="138" width="484" height="284" rx="24" fill="white" stroke="#E2E8F0" stroke-width="2" />
  <rect x="154" y="188" width="190" height="16" rx="8" fill="#C4F1DE" />
  <rect x="154" y="226" width="264" height="12" rx="6" fill="#D9F7EA" />
  <rect x="154" y="254" width="228" height="12" rx="6" fill="#E2F6ED" />
  <rect x="154" y="282" width="250" height="12" rx="6" fill="#E2F6ED" />
  <rect x="154" y="310" width="210" height="12" rx="6" fill="#E2F6ED" />
  <rect x="154" y="338" width="264" height="12" rx="6" fill="#E2F6ED" />
  <rect x="154" y="366" width="172" height="12" rx="6" fill="#E2F6ED" />
  <circle cx="508" cy="250" r="70" fill="#10B981" opacity="0.18" />
  <circle cx="520" cy="240" r="24" fill="#10B981" opacity="0.35" />
  <g filter="url(#card)">
    <rect x="420" y="288" width="152" height="120" rx="20" fill="#101828" />
    <rect x="444" y="312" width="104" height="12" rx="6" fill="#1F2A37" />
    <rect x="444" y="336" width="96" height="8" rx="4" fill="#1F2A37" opacity="0.7" />
    <rect x="444" y="360" width="88" height="8" rx="4" fill="#10B981" opacity="0.6" />
  </g>
  <g filter="url(#person)">
    <path d="M344 356c0-32 20-58 50-58s50 26 50 58v84h-100v-84z" fill="#1F2937" />
    <path d="M356 292c0-22 16-40 38-40s38 18 38 40-16 40-38 40-38-18-38-40z" fill="#0EA5E9" />
    <path d="M360 288c0-18 14-32 32-32s32 14 32 32-14 32-32 32-32-14-32-32z" fill="#10B981" opacity="0.4" />
    <circle cx="392" cy="274" r="26" fill="#F9FAFB" />
    <path d="M376 274c0-8.8 7.2-16 16-16s16 7.2 16 16-7.2 16-16 16-16-7.2-16-16z" fill="#1F2937" />
    <path d="M360 428h64l20 58h-104l20-58z" fill="#10B981" />
  </g>
  <defs>
    <filter id="shadow" x="60" y="80" width="600" height="400" filterUnits="userSpaceOnUse" color-interpolation-filters="sRGB">
      <feFlood flood-opacity="0" result="BackgroundImageFix" />
      <feGaussianBlur in="SourceAlpha" stdDeviation="20" result="blur" />
      <feOffset dy="20" />
      <feBlend in="SourceGraphic" in2="blur" mode="normal" />
    </filter>
    <filter id="card" x="404" y="272" width="184" height="152" filterUnits="userSpaceOnUse" color-interpolation-filters="sRGB">
      <feFlood flood-opacity="0" result="BackgroundImageFix" />
      <feGaussianBlur in="SourceAlpha" stdDeviation="8" result="blur" />
      <feOffset dy="6" />
      <feBlend in="SourceGraphic" in2="blur" mode="normal" />
    </filter>
    <filter id="person" x="312" y="224" width="184" height="284" filterUnits="userSpaceOnUse" color-interpolation-filters="sRGB">
      <feFlood flood-opacity="0" result="BackgroundImageFix" />
      <feGaussianBlur in="SourceAlpha" stdDeviation="6" result="blur" />
      <feOffset dy="4" />
      <feBlend in="SourceGraphic" in2="blur" mode="normal" />
    </filter>
  </defs>
</svg>
